<svg version="1.2" xmlns="http://www.w3.org/2000/svg" viewBox="0 0 50 34" width="50" height="34">
	<title>logo</title>
	<style>
		.s0 { fill: #ffffff } 
	</style>
	<g id="Layer_1-2">
		<path class="s0" d="m29 3.3c0 0-27.6 3.5-29 18.7 0 11.7 22.5 11.4 22.5 11.4 0 0-20.7 0-20.3-11.2 1.7-10.9 18.2-15.2 25.4-16.6z"/>
		<path class="s0" d="m29.1 8.7c0 0-23.4 3.8-24 15.1 0.8 9.2 20.9 9 20.9 9 0 0-19.5 0-19.1-8.8 1.4-10.3 25-14 25-14z"/>
		<path class="s0" d="m49.7 0.4c0 0-3.6-1-7.9 0.2-1.8 0.4-3.9 1.3-3.9 1.3 0 0-2.7-2-5.9-0.5 2.4 0.9 2.9 1.9 2.9 1.9l-1.4 0.6 1.2 3 1.5-0.4c0 0 0.3 1.1-1 3.1 3.5-0.5 4.2-3.7 4.2-3.7 0 0 2.2-0.5 3.3-1 5.1-1.9 7-4.5 7-4.5zm-14.7 5.8l-0.3-1 13.7-4.4c0 0-1.2 1.7-5.7 3.6-2.5 1-7.7 1.8-7.7 1.8z"/>
		<path fill-rule="evenodd" class="s0" d="m33.2 6.9l-0.9-2.2 1-0.7 1.1 2.8-1.2 0.1z"/>
		<path fill-rule="evenodd" class="s0" d="m27.2 7.6l5.3-0.9-0.5-1.5-4.8 2.4z"/>
	</g>
</svg>