<?xml version="1.0" encoding="UTF-8"?><svg id="Layer_2" xmlns="http://www.w3.org/2000/svg" viewBox="0 0 76.39 33.36"><defs><style>.cls-1{fill:#fff;}</style></defs><g id="Layer_1-2"><path class="cls-1" d="M17.4,26.74c-.3,0-.58-.07-.84-.22-.25-.16-.45-.36-.61-.61-.15-.26-.22-.54-.22-.84v-.11h1.13v.11c0,.15,.05,.28,.15,.39,.11,.1,.24,.15,.39,.15h4.79c.15,0,.27-.05,.37-.15,.11-.11,.17-.24,.17-.39v-1.22c0-.15-.06-.27-.17-.37-.1-.11-.22-.17-.37-.17h-4.79c-.3,0-.58-.07-.84-.22-.25-.16-.45-.36-.61-.61-.15-.26-.22-.54-.22-.84v-1.22c0-.3,.07-.58,.22-.83,.16-.26,.36-.46,.61-.61,.26-.16,.54-.23,.84-.23h4.79c.31,0,.59,.08,.84,.23,.26,.15,.46,.35,.61,.61,.16,.25,.23,.52,.23,.83v.11h-1.14v-.11c0-.15-.06-.27-.17-.37-.1-.11-.22-.17-.37-.17h-4.79c-.15,0-.28,.06-.39,.17-.1,.1-.15,.22-.15,.37v1.22c0,.15,.05,.28,.15,.39,.11,.1,.24,.15,.39,.15h4.79c.31,0,.59,.08,.84,.23,.26,.15,.46,.35,.61,.61,.16,.25,.23,.52,.23,.83v1.22c0,.3-.08,.58-.23,.84-.15,.25-.35,.45-.61,.61-.25,.15-.53,.22-.84,.22h-4.79Zm7.85,0v-10.59h1.13v2.61h5.34c.3,0,.58,.08,.83,.23,.26,.15,.46,.35,.61,.61,.16,.25,.23,.52,.23,.83v6.32h-1.13v-6.32c0-.15-.06-.27-.17-.37-.1-.11-.22-.17-.37-.17h-4.79c-.15,0-.28,.06-.39,.17-.11,.1-.17,.22-.17,.37v6.32h-1.13Zm10.84,0c-.3,0-.58-.07-.84-.22-.25-.16-.45-.36-.61-.61-.15-.26-.22-.54-.22-.84v-6.32h1.13v6.32c0,.15,.05,.28,.15,.39,.11,.1,.24,.15,.39,.15h4.79c.15,0,.28-.05,.39-.15,.11-.11,.17-.24,.17-.39v-6.32h1.13v6.32c0,.3-.08,.58-.23,.84-.15,.25-.35,.45-.61,.61-.25,.15-.53,.22-.84,.22h-4.79Zm9.37,0c-.31,0-.6-.07-.85-.22-.25-.16-.44-.36-.59-.61-.15-.26-.22-.54-.22-.84v-8.93h1.13v2.61h3.45v1.13h-3.45v5.19c0,.15,.05,.28,.15,.39,.11,.1,.24,.15,.39,.15h2.92v1.13h-2.92Zm5.64,0c-.31,0-.6-.07-.85-.22-.25-.16-.44-.36-.59-.61-.15-.26-.22-.54-.22-.84v-8.93h1.13v2.61h3.45v1.13h-3.45v5.19c0,.15,.05,.28,.15,.39,.11,.1,.24,.15,.39,.15h2.92v1.13h-2.92Zm5.63,0c-.3,0-.58-.07-.84-.22-.25-.16-.45-.36-.61-.61-.15-.26-.22-.54-.22-.84v-8.93h1.13v8.93c0,.15,.05,.28,.15,.39,.11,.1,.24,.15,.39,.15h1.35v1.13h-1.35Zm3.94,0c-.3,0-.58-.07-.84-.22-.25-.16-.45-.36-.61-.61-.15-.26-.22-.54-.22-.84v-4.65c0-.3,.07-.58,.22-.83,.16-.26,.36-.46,.61-.61,.26-.16,.54-.23,.84-.23h4.79c.31,0,.59,.08,.84,.23,.26,.15,.46,.35,.61,.61,.16,.25,.23,.52,.23,.83v2.89h-7v1.76c0,.15,.05,.28,.15,.39,.11,.1,.24,.15,.39,.15h6.47v1.13h-6.47Zm-.54-4.55h5.86v-1.76c0-.15-.06-.27-.17-.37-.1-.11-.22-.17-.37-.17h-4.79c-.15,0-.28,.06-.39,.17-.1,.1-.15,.22-.15,.37v1.76Zm8.1,4.55h0l3.33-4.06-3.33-3.91h1.49l2.59,3.01,2.6-3.03h1.47l-3.33,3.92,3.34,4.05h-1.49l-2.6-3.18-2.59,3.19h-1.49Z"/><path class="cls-1" d="M29.02,3.27S1.42,6.8,0,22.03c0,11.64,22.49,11.33,22.49,11.33,0,0-20.72,0-20.31-11.16C3.93,11.34,20.43,7,27.63,5.61l1.39-2.34Z"/><path class="cls-1" d="M29.14,8.67S5.72,12.46,5.09,23.8c.77,9.23,20.9,9.04,20.9,9.04,0,0-19.46,0-19.1-8.86,1.44-10.31,25.01-14.03,25.01-14.03l-2.76-1.28Z"/><path class="cls-1" d="M49.67,.35s-3.61-.94-7.88,.25c-1.74,.43-3.92,1.33-3.92,1.33,0,0-2.67-2-5.88-.51,2.46,.84,2.89,1.92,2.89,1.92l-1.37,.51,1.17,3.03,1.5-.36s.32,1.09-.97,3.11c3.47-.49,4.23-3.76,4.23-3.76,0,0,2.18-.51,3.23-.94,5.12-1.95,7-4.58,7-4.58Zm-14.63,5.89l-.35-1.07L48.36,.78s-1.19,1.77-5.66,3.57c-2.46,1.07-7.66,1.89-7.66,1.89Z"/><polygon class="cls-1" points="33.18 6.9 32.3 4.74 33.27 4.03 34.41 6.82 33.18 6.9"/><polygon class="cls-1" points="27.23 7.57 32.54 6.74 31.99 5.23 27.23 7.57"/></g></svg>